<svg width="918" height="796" viewBox="0 0 918 796" fill="none" xmlns="http://www.w3.org/2000/svg">
<rect x="-88" width="1006" height="796" rx="30" fill="#1D1135"/>
<path d="M311.518 130V109.694H319.529C321.063 109.694 322.371 109.968 323.455 110.517C324.546 111.059 325.376 111.829 325.944 112.827C326.519 113.818 326.807 114.985 326.807 116.327C326.807 117.675 326.516 118.836 325.934 119.807C325.353 120.772 324.51 121.513 323.406 122.028C322.309 122.544 320.98 122.802 319.42 122.802H314.056V119.351H318.726C319.546 119.351 320.226 119.239 320.768 119.014C321.31 118.789 321.714 118.452 321.978 118.003C322.249 117.553 322.385 116.995 322.385 116.327C322.385 115.653 322.249 115.084 321.978 114.622C321.714 114.159 321.307 113.809 320.759 113.571C320.216 113.326 319.532 113.204 318.706 113.204H315.811V130H311.518ZM322.484 120.759L327.531 130H322.791L317.853 120.759H322.484ZM336.457 130.297C334.89 130.297 333.542 129.98 332.411 129.346C331.288 128.704 330.422 127.799 329.814 126.629C329.205 125.452 328.901 124.061 328.901 122.455C328.901 120.888 329.205 119.513 329.814 118.33C330.422 117.147 331.278 116.225 332.382 115.564C333.492 114.903 334.794 114.572 336.288 114.572C337.293 114.572 338.228 114.734 339.094 115.058C339.967 115.375 340.727 115.854 341.375 116.496C342.029 117.137 342.538 117.943 342.902 118.915C343.265 119.88 343.447 121.01 343.447 122.306V123.466H330.587V120.848H339.471C339.471 120.24 339.339 119.701 339.074 119.232C338.81 118.763 338.443 118.396 337.974 118.132C337.511 117.861 336.972 117.725 336.358 117.725C335.716 117.725 335.148 117.874 334.652 118.171C334.163 118.462 333.78 118.855 333.502 119.351C333.224 119.84 333.082 120.386 333.076 120.987V123.476C333.076 124.229 333.214 124.88 333.492 125.429C333.776 125.978 334.176 126.401 334.692 126.698C335.207 126.996 335.819 127.144 336.526 127.144C336.995 127.144 337.425 127.078 337.815 126.946C338.205 126.814 338.539 126.616 338.817 126.351C339.094 126.087 339.306 125.763 339.451 125.38L343.358 125.637C343.159 126.576 342.753 127.396 342.138 128.096C341.53 128.79 340.743 129.332 339.778 129.722C338.82 130.106 337.713 130.297 336.457 130.297ZM350.546 130.288C349.574 130.288 348.709 130.119 347.948 129.782C347.188 129.438 346.587 128.932 346.144 128.265C345.708 127.591 345.489 126.751 345.489 125.746C345.489 124.9 345.645 124.19 345.955 123.615C346.266 123.04 346.689 122.577 347.225 122.227C347.76 121.876 348.368 121.612 349.049 121.433C349.736 121.255 350.457 121.129 351.21 121.057C352.096 120.964 352.81 120.878 353.352 120.799C353.894 120.713 354.287 120.587 354.532 120.422C354.777 120.257 354.899 120.012 354.899 119.688V119.629C354.899 119.001 354.701 118.515 354.304 118.171C353.914 117.827 353.359 117.656 352.638 117.656C351.878 117.656 351.273 117.824 350.824 118.161C350.374 118.492 350.077 118.908 349.931 119.411L346.025 119.093C346.223 118.168 346.613 117.368 347.195 116.694C347.777 116.013 348.527 115.491 349.446 115.127C350.371 114.757 351.442 114.572 352.658 114.572C353.504 114.572 354.314 114.671 355.087 114.869C355.867 115.068 356.558 115.375 357.16 115.792C357.768 116.208 358.247 116.743 358.597 117.398C358.948 118.046 359.123 118.822 359.123 119.728V130H355.117V127.888H354.998C354.753 128.364 354.426 128.784 354.016 129.147C353.607 129.504 353.114 129.785 352.539 129.99C351.964 130.188 351.3 130.288 350.546 130.288ZM351.756 127.372C352.377 127.372 352.926 127.25 353.402 127.006C353.878 126.754 354.251 126.417 354.522 125.994C354.793 125.571 354.929 125.092 354.929 124.557V122.94C354.796 123.026 354.615 123.106 354.383 123.178C354.159 123.244 353.904 123.307 353.62 123.367C353.336 123.42 353.051 123.469 352.767 123.515C352.483 123.555 352.225 123.592 351.994 123.625C351.498 123.697 351.065 123.813 350.695 123.972C350.325 124.13 350.037 124.345 349.832 124.616C349.627 124.88 349.525 125.211 349.525 125.608C349.525 126.183 349.733 126.622 350.15 126.926C350.573 127.224 351.108 127.372 351.756 127.372ZM369.281 130.297C367.721 130.297 366.379 129.967 365.255 129.306C364.138 128.638 363.279 127.713 362.677 126.53C362.082 125.346 361.785 123.985 361.785 122.445C361.785 120.885 362.086 119.516 362.687 118.34C363.295 117.157 364.158 116.234 365.275 115.573C366.392 114.906 367.721 114.572 369.261 114.572C370.59 114.572 371.753 114.813 372.751 115.296C373.749 115.778 374.539 116.456 375.121 117.328C375.703 118.201 376.023 119.226 376.083 120.402H372.097C371.984 119.642 371.687 119.031 371.204 118.568C370.728 118.099 370.104 117.864 369.33 117.864C368.676 117.864 368.104 118.042 367.615 118.399C367.133 118.75 366.756 119.262 366.485 119.936C366.214 120.61 366.078 121.427 366.078 122.385C366.078 123.357 366.21 124.183 366.475 124.864C366.746 125.545 367.126 126.064 367.615 126.421C368.104 126.778 368.676 126.956 369.33 126.956C369.813 126.956 370.246 126.857 370.629 126.659C371.019 126.46 371.34 126.173 371.591 125.796C371.849 125.413 372.017 124.953 372.097 124.418H376.083C376.017 125.581 375.699 126.606 375.131 127.491C374.569 128.371 373.792 129.058 372.801 129.554C371.809 130.05 370.636 130.297 369.281 130.297ZM386.888 114.77V117.943H377.716V114.77H386.888ZM379.798 111.122H384.022V125.32C384.022 125.71 384.082 126.014 384.201 126.232C384.32 126.444 384.485 126.592 384.696 126.678C384.915 126.764 385.166 126.807 385.45 126.807C385.648 126.807 385.847 126.791 386.045 126.758C386.243 126.718 386.395 126.688 386.501 126.669L387.165 129.812C386.954 129.878 386.656 129.954 386.273 130.04C385.89 130.132 385.424 130.188 384.875 130.208C383.857 130.248 382.965 130.112 382.198 129.802C381.438 129.491 380.846 129.008 380.423 128.354C380 127.7 379.792 126.873 379.798 125.875V111.122ZM404.311 109.694H408.555V123.853C408.555 125.161 408.261 126.298 407.672 127.263C407.091 128.228 406.281 128.972 405.243 129.494C404.205 130.017 402.999 130.278 401.624 130.278C400.401 130.278 399.291 130.063 398.293 129.633C397.301 129.197 396.514 128.536 395.933 127.65C395.351 126.758 395.064 125.637 395.07 124.289H399.344C399.357 124.824 399.466 125.284 399.671 125.667C399.882 126.044 400.17 126.335 400.533 126.54C400.904 126.738 401.34 126.837 401.842 126.837C402.371 126.837 402.817 126.725 403.181 126.5C403.551 126.269 403.832 125.931 404.024 125.489C404.215 125.046 404.311 124.5 404.311 123.853V109.694ZM423.12 115.534C423.041 114.734 422.7 114.113 422.099 113.67C421.497 113.227 420.681 113.005 419.65 113.005C418.949 113.005 418.358 113.105 417.875 113.303C417.393 113.495 417.022 113.762 416.765 114.106C416.513 114.45 416.388 114.84 416.388 115.276C416.375 115.64 416.451 115.957 416.616 116.228C416.788 116.499 417.022 116.734 417.32 116.932C417.617 117.124 417.961 117.292 418.351 117.437C418.741 117.576 419.157 117.695 419.6 117.794L421.425 118.231C422.31 118.429 423.123 118.693 423.864 119.024C424.604 119.354 425.245 119.761 425.787 120.243C426.329 120.726 426.749 121.294 427.047 121.949C427.351 122.603 427.506 123.354 427.513 124.2C427.506 125.442 427.189 126.52 426.561 127.432C425.939 128.338 425.04 129.042 423.864 129.544C422.694 130.04 421.283 130.288 419.63 130.288C417.991 130.288 416.563 130.036 415.347 129.534C414.137 129.032 413.192 128.288 412.511 127.303C411.837 126.312 411.483 125.085 411.45 123.625H415.604C415.651 124.305 415.846 124.874 416.189 125.33C416.54 125.779 417.006 126.12 417.588 126.351C418.176 126.576 418.84 126.688 419.58 126.688C420.308 126.688 420.939 126.583 421.474 126.371C422.016 126.16 422.436 125.865 422.733 125.489C423.031 125.112 423.18 124.679 423.18 124.19C423.18 123.734 423.044 123.35 422.773 123.04C422.509 122.729 422.119 122.464 421.603 122.246C421.094 122.028 420.47 121.83 419.729 121.651L417.518 121.096C415.806 120.68 414.454 120.029 413.463 119.143C412.471 118.257 411.979 117.064 411.985 115.564C411.979 114.334 412.306 113.26 412.967 112.341C413.635 111.422 414.55 110.705 415.714 110.19C416.877 109.674 418.199 109.416 419.68 109.416C421.187 109.416 422.502 109.674 423.626 110.19C424.756 110.705 425.635 111.422 426.263 112.341C426.891 113.26 427.215 114.324 427.235 115.534H423.12Z" fill="white"/>
<path d="M802.365 126.188L808.411 114.223V114.123H801.368V111.602H811.602V114.159L805.548 126.188H802.365ZM819.121 126.509C817.896 126.504 816.842 126.202 815.959 125.604C815.081 125.006 814.404 124.139 813.929 123.005C813.459 121.87 813.227 120.505 813.231 118.909C813.231 117.319 813.466 115.963 813.936 114.843C814.411 113.722 815.088 112.87 815.966 112.286C816.849 111.697 817.901 111.403 819.121 111.403C820.342 111.403 821.391 111.697 822.269 112.286C823.152 112.875 823.831 113.729 824.306 114.85C824.781 115.966 825.016 117.319 825.011 118.909C825.011 120.509 824.774 121.877 824.299 123.012C823.829 124.147 823.155 125.013 822.276 125.611C821.398 126.21 820.346 126.509 819.121 126.509ZM819.121 123.952C819.957 123.952 820.624 123.532 821.123 122.691C821.621 121.851 821.868 120.59 821.863 118.909C821.863 117.803 821.749 116.882 821.521 116.146C821.298 115.41 820.98 114.857 820.567 114.487C820.159 114.116 819.677 113.931 819.121 113.931C818.29 113.931 817.626 114.346 817.127 115.177C816.629 116.008 816.377 117.252 816.372 118.909C816.372 120.03 816.484 120.965 816.707 121.716C816.935 122.461 817.255 123.021 817.668 123.396C818.081 123.767 818.566 123.952 819.121 123.952ZM835.194 123.453V122.684C835.194 122.1 835.318 121.564 835.565 121.075C835.816 120.581 836.179 120.187 836.654 119.892C837.134 119.593 837.718 119.444 838.406 119.444C839.104 119.444 839.691 119.591 840.165 119.885C840.645 120.18 841.006 120.574 841.248 121.067C841.495 121.556 841.618 122.095 841.618 122.684V123.453C841.618 124.037 841.495 124.576 841.248 125.07C841.001 125.559 840.638 125.951 840.158 126.245C839.679 126.544 839.095 126.694 838.406 126.694C837.708 126.694 837.122 126.544 836.647 126.245C836.172 125.951 835.811 125.559 835.565 125.07C835.318 124.576 835.194 124.037 835.194 123.453ZM837.267 122.684V123.453C837.267 123.79 837.347 124.109 837.509 124.408C837.675 124.707 837.974 124.856 838.406 124.856C838.838 124.856 839.133 124.709 839.289 124.415C839.451 124.12 839.532 123.8 839.532 123.453V122.684C839.532 122.338 839.456 122.015 839.304 121.716C839.152 121.416 838.853 121.267 838.406 121.267C837.979 121.267 837.682 121.416 837.516 121.716C837.35 122.015 837.267 122.338 837.267 122.684ZM827.709 115.106V114.337C827.709 113.748 827.835 113.209 828.086 112.72C828.338 112.226 828.701 111.832 829.176 111.538C829.656 111.244 830.235 111.096 830.914 111.096C831.617 111.096 832.205 111.244 832.68 111.538C833.155 111.832 833.516 112.226 833.763 112.72C834.01 113.209 834.133 113.748 834.133 114.337V115.106C834.133 115.695 834.007 116.234 833.756 116.723C833.509 117.212 833.145 117.604 832.666 117.898C832.191 118.188 831.607 118.332 830.914 118.332C830.221 118.332 829.634 118.185 829.155 117.891C828.68 117.592 828.319 117.2 828.072 116.716C827.83 116.227 827.709 115.69 827.709 115.106ZM829.796 114.337V115.106C829.796 115.453 829.876 115.773 830.038 116.068C830.204 116.362 830.496 116.509 830.914 116.509C831.351 116.509 831.647 116.362 831.804 116.068C831.966 115.773 832.046 115.453 832.046 115.106V114.337C832.046 113.99 831.97 113.667 831.818 113.368C831.666 113.069 831.365 112.92 830.914 112.92C830.491 112.92 830.199 113.072 830.038 113.375C829.876 113.679 829.796 114 829.796 114.337ZM828.649 126.188L838.677 111.602H840.543L830.515 126.188H828.649Z" fill="#BBB2B2"/>
<path d="M807.229 242.819C806.132 242.819 805.157 242.641 804.302 242.284C803.452 241.924 802.785 241.432 802.301 240.81C801.816 240.188 801.574 239.483 801.574 238.695C801.574 238.087 801.712 237.529 801.987 237.021C802.267 236.508 802.647 236.083 803.127 235.746C803.606 235.404 804.143 235.186 804.736 235.091V234.991C803.958 234.835 803.326 234.457 802.842 233.859C802.358 233.256 802.115 232.556 802.115 231.758C802.115 231.003 802.336 230.331 802.778 229.742C803.219 229.149 803.825 228.683 804.594 228.346C805.368 228.004 806.246 227.834 807.229 227.834C808.212 227.834 809.088 228.004 809.857 228.346C810.631 228.688 811.239 229.156 811.68 229.749C812.122 230.338 812.345 231.008 812.35 231.758C812.345 232.56 812.098 233.261 811.609 233.859C811.12 234.457 810.493 234.835 809.729 234.991V235.091C810.313 235.186 810.842 235.404 811.317 235.746C811.797 236.083 812.177 236.508 812.457 237.021C812.742 237.529 812.886 238.087 812.891 238.695C812.886 239.483 812.642 240.188 812.158 240.81C811.673 241.432 811.004 241.924 810.149 242.284C809.299 242.641 808.326 242.819 807.229 242.819ZM807.229 240.554C807.718 240.554 808.145 240.466 808.511 240.29C808.877 240.11 809.162 239.863 809.366 239.549C809.575 239.231 809.679 238.866 809.679 238.453C809.679 238.03 809.572 237.657 809.359 237.334C809.145 237.007 808.855 236.75 808.49 236.565C808.124 236.375 807.704 236.28 807.229 236.28C806.759 236.28 806.339 236.375 805.968 236.565C805.598 236.75 805.306 237.007 805.092 237.334C804.884 237.657 804.779 238.03 804.779 238.453C804.779 238.866 804.881 239.231 805.085 239.549C805.289 239.863 805.577 240.11 805.947 240.29C806.317 240.466 806.745 240.554 807.229 240.554ZM807.229 234.037C807.637 234.037 808.001 233.954 808.319 233.788C808.637 233.621 808.886 233.391 809.067 233.097C809.247 232.802 809.337 232.463 809.337 232.078C809.337 231.698 809.247 231.366 809.067 231.081C808.886 230.792 808.639 230.566 808.326 230.405C808.013 230.238 807.647 230.155 807.229 230.155C806.816 230.155 806.45 230.238 806.132 230.405C805.814 230.566 805.565 230.792 805.384 231.081C805.209 231.366 805.121 231.698 805.121 232.078C805.121 232.463 805.211 232.802 805.392 233.097C805.572 233.391 805.821 233.621 806.139 233.788C806.458 233.954 806.821 234.037 807.229 234.037ZM820.645 242.819C819.895 242.814 819.171 242.688 818.473 242.441C817.78 242.194 817.158 241.793 816.607 241.237C816.056 240.682 815.62 239.946 815.297 239.03C814.979 238.113 814.82 236.988 814.82 235.654C814.824 234.429 814.964 233.334 815.24 232.37C815.52 231.402 815.919 230.58 816.436 229.906C816.959 229.232 817.583 228.719 818.309 228.368C819.036 228.012 819.85 227.834 820.752 227.834C821.726 227.834 822.585 228.023 823.33 228.403C824.076 228.778 824.674 229.289 825.125 229.935C825.581 230.58 825.856 231.304 825.951 232.107H822.91C822.792 231.599 822.542 231.2 822.162 230.91C821.783 230.621 821.313 230.476 820.752 230.476C819.803 230.476 819.081 230.889 818.587 231.715C818.098 232.541 817.849 233.664 817.839 235.084H817.939C818.157 234.652 818.452 234.284 818.822 233.98C819.197 233.671 819.622 233.436 820.097 233.275C820.577 233.109 821.082 233.026 821.614 233.026C822.478 233.026 823.247 233.23 823.922 233.638C824.596 234.042 825.128 234.597 825.517 235.305C825.906 236.012 826.101 236.822 826.101 237.733C826.101 238.721 825.871 239.599 825.41 240.369C824.954 241.138 824.316 241.741 823.494 242.178C822.678 242.61 821.728 242.823 820.645 242.819ZM820.631 240.397C821.106 240.397 821.531 240.283 821.906 240.055C822.281 239.827 822.576 239.519 822.789 239.129C823.003 238.74 823.11 238.303 823.11 237.819C823.11 237.334 823.003 236.9 822.789 236.515C822.58 236.131 822.291 235.825 821.92 235.597C821.55 235.369 821.127 235.255 820.653 235.255C820.296 235.255 819.966 235.321 819.663 235.454C819.363 235.587 819.1 235.772 818.872 236.01C818.649 236.247 818.473 236.523 818.345 236.836C818.217 237.145 818.153 237.475 818.153 237.826C818.153 238.296 818.26 238.726 818.473 239.115C818.692 239.504 818.986 239.815 819.356 240.048C819.731 240.281 820.156 240.397 820.631 240.397ZM836.271 239.884V239.115C836.271 238.531 836.395 237.994 836.642 237.505C836.893 237.012 837.257 236.618 837.731 236.323C838.211 236.024 838.795 235.874 839.484 235.874C840.182 235.874 840.768 236.022 841.243 236.316C841.722 236.61 842.083 237.005 842.325 237.498C842.572 237.987 842.696 238.526 842.696 239.115V239.884C842.696 240.468 842.572 241.007 842.325 241.501C842.078 241.99 841.715 242.382 841.236 242.676C840.756 242.975 840.172 243.125 839.484 243.125C838.786 243.125 838.199 242.975 837.724 242.676C837.25 242.382 836.889 241.99 836.642 241.501C836.395 241.007 836.271 240.468 836.271 239.884ZM838.344 239.115V239.884C838.344 240.221 838.425 240.539 838.586 240.839C838.752 241.138 839.051 241.287 839.484 241.287C839.916 241.287 840.21 241.14 840.367 240.846C840.528 240.551 840.609 240.231 840.609 239.884V239.115C840.609 238.768 840.533 238.446 840.381 238.146C840.229 237.847 839.93 237.698 839.484 237.698C839.056 237.698 838.759 237.847 838.593 238.146C838.427 238.446 838.344 238.768 838.344 239.115ZM828.786 231.537V230.768C828.786 230.179 828.912 229.64 829.164 229.151C829.415 228.657 829.778 228.263 830.253 227.969C830.733 227.674 831.312 227.527 831.991 227.527C832.694 227.527 833.283 227.674 833.757 227.969C834.232 228.263 834.593 228.657 834.84 229.151C835.087 229.64 835.21 230.179 835.21 230.768V231.537C835.21 232.126 835.084 232.665 834.833 233.154C834.586 233.643 834.223 234.035 833.743 234.329C833.268 234.619 832.684 234.763 831.991 234.763C831.298 234.763 830.711 234.616 830.232 234.322C829.757 234.023 829.396 233.631 829.149 233.147C828.907 232.658 828.786 232.121 828.786 231.537ZM830.873 230.768V231.537C830.873 231.884 830.954 232.204 831.115 232.499C831.281 232.793 831.573 232.94 831.991 232.94C832.428 232.94 832.725 232.793 832.881 232.499C833.043 232.204 833.123 231.884 833.123 231.537V230.768C833.123 230.421 833.047 230.098 832.896 229.799C832.744 229.5 832.442 229.351 831.991 229.351C831.568 229.351 831.276 229.502 831.115 229.806C830.954 230.11 830.873 230.431 830.873 230.768ZM829.726 242.619L839.754 228.033H841.62L831.592 242.619H829.726Z" fill="#BBB2B2"/>
<path d="M808.067 355.061C806.97 355.061 805.994 354.883 805.14 354.527C804.29 354.166 803.622 353.675 803.138 353.053C802.654 352.431 802.412 351.726 802.412 350.938C802.412 350.33 802.549 349.772 802.825 349.264C803.105 348.751 803.485 348.326 803.964 347.989C804.444 347.647 804.98 347.429 805.574 347.334V347.234C804.795 347.077 804.164 346.7 803.679 346.102C803.195 345.499 802.953 344.798 802.953 344.001C802.953 343.246 803.174 342.574 803.615 341.985C804.057 341.391 804.662 340.926 805.432 340.589C806.205 340.247 807.084 340.076 808.067 340.076C809.05 340.076 809.926 340.247 810.695 340.589C811.469 340.931 812.076 341.399 812.518 341.992C812.96 342.581 813.183 343.25 813.188 344.001C813.183 344.803 812.936 345.503 812.447 346.102C811.958 346.7 811.331 347.077 810.567 347.234V347.334C811.151 347.429 811.68 347.647 812.155 347.989C812.634 348.326 813.014 348.751 813.294 349.264C813.579 349.772 813.724 350.33 813.729 350.938C813.724 351.726 813.48 352.431 812.995 353.053C812.511 353.675 811.841 354.166 810.987 354.527C810.137 354.883 809.164 355.061 808.067 355.061ZM808.067 352.796C808.556 352.796 808.983 352.709 809.349 352.533C809.714 352.352 809.999 352.106 810.203 351.792C810.412 351.474 810.517 351.108 810.517 350.695C810.517 350.273 810.41 349.9 810.196 349.577C809.983 349.25 809.693 348.993 809.327 348.808C808.962 348.618 808.542 348.523 808.067 348.523C807.597 348.523 807.176 348.618 806.806 348.808C806.436 348.993 806.144 349.25 805.93 349.577C805.721 349.9 805.617 350.273 805.617 350.695C805.617 351.108 805.719 351.474 805.923 351.792C806.127 352.106 806.414 352.352 806.785 352.533C807.155 352.709 807.582 352.796 808.067 352.796ZM808.067 346.28C808.475 346.28 808.838 346.197 809.156 346.03C809.475 345.864 809.724 345.634 809.904 345.339C810.085 345.045 810.175 344.706 810.175 344.321C810.175 343.941 810.085 343.609 809.904 343.324C809.724 343.034 809.477 342.809 809.164 342.647C808.85 342.481 808.485 342.398 808.067 342.398C807.654 342.398 807.288 342.481 806.97 342.647C806.652 342.809 806.403 343.034 806.222 343.324C806.046 343.609 805.959 343.941 805.959 344.321C805.959 344.706 806.049 345.045 806.229 345.339C806.41 345.634 806.659 345.864 806.977 346.03C807.295 346.197 807.658 346.28 808.067 346.28ZM815.885 354.862V352.64L821.077 347.832C821.519 347.405 821.889 347.02 822.188 346.678C822.492 346.337 822.722 346.002 822.879 345.674C823.036 345.342 823.114 344.983 823.114 344.599C823.114 344.171 823.017 343.803 822.822 343.495C822.627 343.181 822.361 342.942 822.024 342.776C821.687 342.605 821.305 342.519 820.878 342.519C820.431 342.519 820.042 342.609 819.71 342.79C819.377 342.97 819.121 343.229 818.94 343.566C818.76 343.903 818.67 344.304 818.67 344.77H815.743C815.743 343.815 815.959 342.987 816.391 342.284C816.823 341.581 817.428 341.038 818.207 340.653C818.986 340.269 819.883 340.076 820.899 340.076C821.944 340.076 822.853 340.261 823.627 340.632C824.406 340.997 825.011 341.505 825.443 342.156C825.875 342.806 826.091 343.552 826.091 344.392C826.091 344.943 825.982 345.487 825.764 346.023C825.55 346.56 825.168 347.156 824.617 347.811C824.066 348.461 823.29 349.242 822.288 350.154L820.158 352.241V352.341H826.283V354.862H815.885ZM836.502 352.127V351.358C836.502 350.774 836.625 350.237 836.872 349.748C837.124 349.254 837.487 348.86 837.962 348.566C838.442 348.267 839.026 348.117 839.714 348.117C840.412 348.117 840.998 348.264 841.473 348.559C841.953 348.853 842.314 349.247 842.556 349.741C842.803 350.23 842.926 350.769 842.926 351.358V352.127C842.926 352.711 842.803 353.25 842.556 353.744C842.309 354.233 841.946 354.624 841.466 354.919C840.987 355.218 840.403 355.367 839.714 355.367C839.016 355.367 838.43 355.218 837.955 354.919C837.48 354.624 837.119 354.233 836.872 353.744C836.625 353.25 836.502 352.711 836.502 352.127ZM838.574 351.358V352.127C838.574 352.464 838.655 352.782 838.817 353.081C838.983 353.38 839.282 353.53 839.714 353.53C840.146 353.53 840.44 353.383 840.597 353.088C840.759 352.794 840.839 352.474 840.839 352.127V351.358C840.839 351.011 840.763 350.688 840.611 350.389C840.459 350.09 840.16 349.94 839.714 349.94C839.287 349.94 838.99 350.09 838.824 350.389C838.658 350.688 838.574 351.011 838.574 351.358ZM829.017 343.78V343.011C829.017 342.422 829.142 341.883 829.394 341.394C829.646 340.9 830.009 340.506 830.484 340.212C830.963 339.917 831.543 339.77 832.222 339.77C832.924 339.77 833.513 339.917 833.988 340.212C834.463 340.506 834.823 340.9 835.07 341.394C835.317 341.883 835.441 342.422 835.441 343.011V343.78C835.441 344.369 835.315 344.907 835.063 345.396C834.816 345.886 834.453 346.277 833.974 346.572C833.499 346.861 832.915 347.006 832.222 347.006C831.528 347.006 830.942 346.859 830.462 346.565C829.988 346.265 829.627 345.874 829.38 345.389C829.138 344.9 829.017 344.364 829.017 343.78ZM831.103 343.011V343.78C831.103 344.126 831.184 344.447 831.345 344.741C831.512 345.036 831.804 345.183 832.222 345.183C832.658 345.183 832.955 345.036 833.112 344.741C833.273 344.447 833.354 344.126 833.354 343.78V343.011C833.354 342.664 833.278 342.341 833.126 342.042C832.974 341.743 832.673 341.593 832.222 341.593C831.799 341.593 831.507 341.745 831.345 342.049C831.184 342.353 831.103 342.673 831.103 343.011ZM829.957 354.862L839.985 340.276H841.851L831.823 354.862H829.957Z" fill="#BBB2B2"/>
<path d="M801.527 471.293L807.574 459.328V459.228H800.53V456.707H810.764V459.264L804.711 471.293H801.527ZM818.284 471.613C817.059 471.609 816.005 471.307 815.121 470.709C814.243 470.111 813.566 469.244 813.092 468.109C812.622 466.975 812.389 465.609 812.394 464.014C812.394 462.424 812.629 461.068 813.099 459.947C813.574 458.827 814.25 457.975 815.129 457.391C816.012 456.802 817.063 456.507 818.284 456.507C819.504 456.507 820.553 456.802 821.432 457.391C822.315 457.979 822.994 458.834 823.469 459.954C823.943 461.07 824.178 462.424 824.174 464.014C824.174 465.614 823.936 466.982 823.461 468.116C822.991 469.251 822.317 470.118 821.439 470.716C820.56 471.314 819.509 471.613 818.284 471.613ZM818.284 469.057C819.119 469.057 819.786 468.636 820.285 467.796C820.784 466.956 821.03 465.695 821.026 464.014C821.026 462.908 820.912 461.987 820.684 461.251C820.461 460.515 820.143 459.962 819.729 459.591C819.321 459.221 818.839 459.036 818.284 459.036C817.453 459.036 816.788 459.451 816.289 460.282C815.791 461.113 815.539 462.357 815.534 464.014C815.534 465.135 815.646 466.07 815.869 466.82C816.097 467.566 816.418 468.126 816.831 468.501C817.244 468.871 817.728 469.057 818.284 469.057ZM834.357 468.558V467.789C834.357 467.205 834.48 466.668 834.727 466.179C834.979 465.685 835.342 465.291 835.817 464.997C836.296 464.698 836.88 464.548 837.569 464.548C838.267 464.548 838.853 464.695 839.328 464.99C839.807 465.284 840.168 465.678 840.41 466.172C840.657 466.661 840.781 467.2 840.781 467.789V468.558C840.781 469.142 840.657 469.681 840.41 470.175C840.164 470.664 839.8 471.056 839.321 471.35C838.841 471.649 838.257 471.799 837.569 471.799C836.871 471.799 836.284 471.649 835.81 471.35C835.335 471.056 834.974 470.664 834.727 470.175C834.48 469.681 834.357 469.142 834.357 468.558ZM836.429 467.789V468.558C836.429 468.895 836.51 469.213 836.671 469.512C836.837 469.812 837.137 469.961 837.569 469.961C838.001 469.961 838.295 469.814 838.452 469.52C838.613 469.225 838.694 468.905 838.694 468.558V467.789C838.694 467.442 838.618 467.119 838.466 466.82C838.314 466.521 838.015 466.372 837.569 466.372C837.141 466.372 836.845 466.521 836.678 466.82C836.512 467.119 836.429 467.442 836.429 467.789ZM826.871 460.211V459.442C826.871 458.853 826.997 458.314 827.249 457.825C827.5 457.331 827.864 456.937 828.338 456.643C828.818 456.348 829.397 456.201 830.076 456.201C830.779 456.201 831.368 456.348 831.842 456.643C832.317 456.937 832.678 457.331 832.925 457.825C833.172 458.314 833.295 458.853 833.295 459.442V460.211C833.295 460.8 833.17 461.339 832.918 461.828C832.671 462.317 832.308 462.708 831.828 463.003C831.353 463.292 830.769 463.437 830.076 463.437C829.383 463.437 828.797 463.29 828.317 462.996C827.842 462.697 827.481 462.305 827.234 461.82C826.992 461.331 826.871 460.795 826.871 460.211ZM828.958 459.442V460.211C828.958 460.558 829.039 460.878 829.2 461.172C829.366 461.467 829.658 461.614 830.076 461.614C830.513 461.614 830.81 461.467 830.966 461.172C831.128 460.878 831.209 460.558 831.209 460.211V459.442C831.209 459.095 831.133 458.772 830.981 458.473C830.829 458.174 830.527 458.024 830.076 458.024C829.654 458.024 829.362 458.176 829.2 458.48C829.039 458.784 828.958 459.105 828.958 459.442ZM827.811 471.293L837.839 456.707H839.705L829.677 471.293H827.811Z" fill="#BBB2B2"/>
<path d="M806.548 600.488C805.798 600.483 805.074 600.357 804.376 600.11C803.683 599.863 803.061 599.462 802.51 598.906C801.959 598.351 801.522 597.615 801.199 596.699C800.881 595.782 800.722 594.657 800.722 593.323C800.727 592.098 800.867 591.003 801.142 590.039C801.423 589.071 801.821 588.249 802.339 587.575C802.861 586.901 803.486 586.388 804.212 586.037C804.939 585.681 805.753 585.502 806.655 585.502C807.628 585.502 808.488 585.692 809.233 586.072C809.979 586.447 810.577 586.958 811.028 587.604C811.484 588.249 811.759 588.973 811.854 589.776H808.813C808.694 589.268 808.445 588.869 808.065 588.579C807.685 588.29 807.215 588.145 806.655 588.145C805.705 588.145 804.984 588.558 804.49 589.384C804.001 590.21 803.751 591.333 803.742 592.753H803.842C804.06 592.321 804.354 591.953 804.725 591.649C805.1 591.34 805.525 591.105 806 590.944C806.479 590.778 806.985 590.695 807.517 590.695C808.381 590.695 809.15 590.899 809.824 591.307C810.499 591.711 811.03 592.266 811.42 592.974C811.809 593.681 812.004 594.491 812.004 595.402C812.004 596.39 811.773 597.268 811.313 598.037C810.857 598.807 810.218 599.41 809.397 599.847C808.58 600.279 807.631 600.492 806.548 600.488ZM806.534 598.066C807.009 598.066 807.434 597.952 807.809 597.724C808.184 597.496 808.478 597.188 808.692 596.798C808.906 596.409 809.012 595.972 809.012 595.488C809.012 595.003 808.906 594.569 808.692 594.184C808.483 593.8 808.193 593.494 807.823 593.266C807.453 593.038 807.03 592.924 806.555 592.924C806.199 592.924 805.869 592.99 805.565 593.123C805.266 593.256 805.003 593.441 804.775 593.679C804.552 593.916 804.376 594.192 804.248 594.505C804.119 594.814 804.055 595.144 804.055 595.495C804.055 595.965 804.162 596.395 804.376 596.784C804.594 597.173 804.889 597.484 805.259 597.717C805.634 597.95 806.059 598.066 806.534 598.066ZM819.632 600.488C818.535 600.488 817.559 600.309 816.704 599.953C815.854 599.592 815.187 599.101 814.703 598.479C814.219 597.857 813.977 597.152 813.977 596.364C813.977 595.756 814.114 595.198 814.39 594.69C814.67 594.177 815.05 593.752 815.529 593.415C816.009 593.073 816.545 592.855 817.139 592.76V592.66C816.36 592.504 815.729 592.126 815.244 591.528C814.76 590.925 814.518 590.224 814.518 589.427C814.518 588.672 814.739 588 815.18 587.411C815.622 586.818 816.227 586.352 816.996 586.015C817.77 585.673 818.649 585.502 819.632 585.502C820.614 585.502 821.49 585.673 822.26 586.015C823.034 586.357 823.641 586.825 824.083 587.418C824.524 588.007 824.748 588.677 824.752 589.427C824.748 590.229 824.501 590.93 824.012 591.528C823.523 592.126 822.896 592.504 822.131 592.66V592.76C822.715 592.855 823.245 593.073 823.72 593.415C824.199 593.752 824.579 594.177 824.859 594.69C825.144 595.198 825.289 595.756 825.294 596.364C825.289 597.152 825.044 597.857 824.56 598.479C824.076 599.101 823.406 599.592 822.552 599.953C821.702 600.309 820.728 600.488 819.632 600.488ZM819.632 598.223C820.121 598.223 820.548 598.135 820.914 597.959C821.279 597.779 821.564 597.532 821.768 597.218C821.977 596.9 822.082 596.535 822.082 596.122C822.082 595.699 821.975 595.326 821.761 595.003C821.547 594.676 821.258 594.419 820.892 594.234C820.527 594.044 820.106 593.949 819.632 593.949C819.161 593.949 818.741 594.044 818.371 594.234C818.001 594.419 817.709 594.676 817.495 595.003C817.286 595.326 817.181 595.699 817.181 596.122C817.181 596.535 817.284 596.9 817.488 597.218C817.692 597.532 817.979 597.779 818.35 597.959C818.72 598.135 819.147 598.223 819.632 598.223ZM819.632 591.706C820.04 591.706 820.403 591.623 820.721 591.457C821.039 591.29 821.289 591.06 821.469 590.766C821.649 590.471 821.74 590.132 821.74 589.747C821.74 589.367 821.649 589.035 821.469 588.75C821.289 588.461 821.042 588.235 820.728 588.074C820.415 587.907 820.049 587.824 819.632 587.824C819.218 587.824 818.853 587.907 818.535 588.074C818.217 588.235 817.967 588.461 817.787 588.75C817.611 589.035 817.523 589.367 817.523 589.747C817.523 590.132 817.614 590.471 817.794 590.766C817.974 591.06 818.224 591.29 818.542 591.457C818.86 591.623 819.223 591.706 819.632 591.706ZM835.434 597.553V596.784C835.434 596.2 835.557 595.663 835.804 595.174C836.056 594.681 836.419 594.286 836.894 593.992C837.373 593.693 837.957 593.543 838.646 593.543C839.344 593.543 839.93 593.691 840.405 593.985C840.885 594.279 841.245 594.673 841.488 595.167C841.735 595.656 841.858 596.195 841.858 596.784V597.553C841.858 598.137 841.735 598.676 841.488 599.17C841.241 599.659 840.878 600.051 840.398 600.345C839.918 600.644 839.334 600.794 838.646 600.794C837.948 600.794 837.362 600.644 836.887 600.345C836.412 600.051 836.051 599.659 835.804 599.17C835.557 598.676 835.434 598.137 835.434 597.553ZM837.506 596.784V597.553C837.506 597.89 837.587 598.208 837.749 598.508C837.915 598.807 838.214 598.956 838.646 598.956C839.078 598.956 839.372 598.809 839.529 598.515C839.69 598.22 839.771 597.9 839.771 597.553V596.784C839.771 596.437 839.695 596.115 839.543 595.815C839.391 595.516 839.092 595.367 838.646 595.367C838.219 595.367 837.922 595.516 837.756 595.815C837.589 596.115 837.506 596.437 837.506 596.784ZM827.948 589.206V588.437C827.948 587.848 828.074 587.309 828.326 586.82C828.578 586.326 828.941 585.932 829.416 585.638C829.895 585.343 830.474 585.196 831.153 585.196C831.856 585.196 832.445 585.343 832.92 585.638C833.394 585.932 833.755 586.326 834.002 586.82C834.249 587.309 834.373 587.848 834.373 588.437V589.206C834.373 589.795 834.247 590.334 833.995 590.823C833.748 591.312 833.385 591.704 832.905 591.998C832.431 592.288 831.847 592.432 831.153 592.432C830.46 592.432 829.874 592.285 829.394 591.991C828.919 591.692 828.559 591.3 828.312 590.816C828.069 590.327 827.948 589.79 827.948 589.206ZM830.035 588.437V589.206C830.035 589.553 830.116 589.873 830.277 590.167C830.444 590.462 830.736 590.609 831.153 590.609C831.59 590.609 831.887 590.462 832.044 590.167C832.205 589.873 832.286 589.553 832.286 589.206V588.437C832.286 588.09 832.21 587.767 832.058 587.468C831.906 587.169 831.604 587.02 831.153 587.02C830.731 587.02 830.439 587.171 830.277 587.475C830.116 587.779 830.035 588.1 830.035 588.437ZM828.889 600.288L838.917 585.702H840.783L830.755 600.288H828.889Z" fill="#BBB2B2"/>
<path d="M330.783 247.269V226.962H335.076V235.341H343.792V226.962H348.075V247.269H343.792V238.88H335.076V247.269H330.783ZM350.842 230.502V226.962H367.519V230.502H361.302V247.269H357.058V230.502H350.842ZM370.265 226.962H375.56L381.152 240.606H381.39L386.982 226.962H392.277V247.269H388.113V234.052H387.944L382.689 247.169H379.853L374.598 234.002H374.43V247.269H370.265V226.962ZM395.814 247.269V226.962H400.108V243.729H408.813V247.269H395.814Z" fill="#8750F7"/>
<path d="M360.427 351.34H356.084C356.005 350.778 355.843 350.279 355.598 349.843C355.353 349.4 355.039 349.023 354.656 348.713C354.273 348.402 353.83 348.164 353.327 347.999C352.832 347.833 352.293 347.751 351.711 347.751C350.66 347.751 349.745 348.012 348.965 348.534C348.185 349.05 347.58 349.803 347.15 350.795C346.721 351.78 346.506 352.976 346.506 354.384C346.506 355.832 346.721 357.048 347.15 358.033C347.587 359.018 348.195 359.761 348.975 360.264C349.755 360.766 350.657 361.017 351.682 361.017C352.257 361.017 352.789 360.941 353.278 360.789C353.774 360.637 354.213 360.416 354.597 360.125C354.98 359.827 355.297 359.467 355.548 359.044C355.806 358.621 355.985 358.139 356.084 357.596L360.427 357.616C360.314 358.548 360.033 359.447 359.584 360.313C359.141 361.173 358.543 361.943 357.789 362.623C357.042 363.298 356.15 363.833 355.112 364.23C354.081 364.62 352.914 364.815 351.612 364.815C349.801 364.815 348.181 364.405 346.754 363.585C345.333 362.766 344.209 361.579 343.383 360.026C342.563 358.472 342.153 356.592 342.153 354.384C342.153 352.17 342.57 350.286 343.402 348.732C344.235 347.179 345.366 345.996 346.793 345.183C348.221 344.363 349.827 343.953 351.612 343.953C352.789 343.953 353.879 344.118 354.884 344.449C355.895 344.779 356.791 345.262 357.571 345.897C358.351 346.525 358.986 347.295 359.475 348.207C359.971 349.119 360.288 350.163 360.427 351.34ZM374.521 350.071C374.442 349.271 374.101 348.65 373.5 348.207C372.898 347.764 372.082 347.543 371.051 347.543C370.35 347.543 369.759 347.642 369.276 347.84C368.793 348.032 368.423 348.299 368.165 348.643C367.914 348.987 367.789 349.377 367.789 349.813C367.775 350.177 367.852 350.494 368.017 350.765C368.189 351.036 368.423 351.271 368.721 351.469C369.018 351.661 369.362 351.829 369.752 351.975C370.142 352.113 370.558 352.232 371.001 352.332L372.826 352.768C373.711 352.966 374.524 353.231 375.265 353.561C376.005 353.892 376.646 354.298 377.188 354.781C377.73 355.263 378.15 355.832 378.448 356.486C378.752 357.14 378.907 357.891 378.914 358.737C378.907 359.979 378.59 361.057 377.962 361.969C377.34 362.875 376.441 363.579 375.265 364.081C374.095 364.577 372.684 364.825 371.031 364.825C369.392 364.825 367.964 364.573 366.748 364.071C365.538 363.569 364.593 362.825 363.912 361.84C363.238 360.849 362.884 359.622 362.851 358.162H367.005C367.052 358.843 367.247 359.411 367.59 359.867C367.941 360.317 368.407 360.657 368.988 360.888C369.577 361.113 370.241 361.225 370.981 361.225C371.709 361.225 372.34 361.12 372.875 360.908C373.417 360.697 373.837 360.402 374.134 360.026C374.432 359.649 374.581 359.216 374.581 358.727C374.581 358.271 374.445 357.887 374.174 357.577C373.91 357.266 373.52 357.002 373.004 356.783C372.495 356.565 371.87 356.367 371.13 356.189L368.919 355.633C367.207 355.217 365.855 354.566 364.864 353.68C363.872 352.794 363.38 351.601 363.386 350.101C363.38 348.871 363.707 347.797 364.368 346.878C365.036 345.959 365.951 345.242 367.114 344.727C368.278 344.211 369.6 343.953 371.081 343.953C372.588 343.953 373.903 344.211 375.027 344.727C376.157 345.242 377.036 345.959 377.664 346.878C378.292 347.797 378.616 348.861 378.636 350.071H374.521ZM392.817 350.071C392.738 349.271 392.397 348.65 391.796 348.207C391.194 347.764 390.378 347.543 389.347 347.543C388.646 347.543 388.054 347.642 387.572 347.84C387.089 348.032 386.719 348.299 386.461 348.643C386.21 348.987 386.085 349.377 386.085 349.813C386.071 350.177 386.147 350.494 386.313 350.765C386.485 351.036 386.719 351.271 387.017 351.469C387.314 351.661 387.658 351.829 388.048 351.975C388.438 352.113 388.854 352.232 389.297 352.332L391.122 352.768C392.007 352.966 392.82 353.231 393.561 353.561C394.301 353.892 394.942 354.298 395.484 354.781C396.026 355.263 396.446 355.832 396.743 356.486C397.048 357.14 397.203 357.891 397.209 358.737C397.203 359.979 396.886 361.057 396.258 361.969C395.636 362.875 394.737 363.579 393.561 364.081C392.391 364.577 390.979 364.825 389.327 364.825C387.688 364.825 386.26 364.573 385.044 364.071C383.834 363.569 382.889 362.825 382.208 361.84C381.534 360.849 381.18 359.622 381.147 358.162H385.301C385.348 358.843 385.543 359.411 385.886 359.867C386.237 360.317 386.703 360.657 387.284 360.888C387.873 361.113 388.537 361.225 389.277 361.225C390.004 361.225 390.636 361.12 391.171 360.908C391.713 360.697 392.133 360.402 392.43 360.026C392.728 359.649 392.877 359.216 392.877 358.727C392.877 358.271 392.741 357.887 392.47 357.577C392.206 357.266 391.816 357.002 391.3 356.783C390.791 356.565 390.166 356.367 389.426 356.189L387.215 355.633C385.503 355.217 384.151 354.566 383.16 353.68C382.168 352.794 381.676 351.601 381.682 350.101C381.676 348.871 382.003 347.797 382.664 346.878C383.332 345.959 384.247 345.242 385.41 344.727C386.574 344.211 387.896 343.953 389.377 343.953C390.884 343.953 392.199 344.211 393.323 344.727C394.453 345.242 395.332 345.959 395.96 346.878C396.588 347.797 396.912 348.861 396.932 350.071H392.817Z" fill="white"/>
<path d="M302.895 461.499H307.139V475.658C307.139 476.967 306.845 478.104 306.257 479.069C305.675 480.034 304.865 480.778 303.827 481.3C302.79 481.822 301.583 482.083 300.208 482.083C298.985 482.083 297.875 481.868 296.877 481.439C295.885 481.003 295.099 480.342 294.517 479.456C293.935 478.563 293.648 477.443 293.654 476.095H297.928C297.941 476.63 298.05 477.089 298.255 477.473C298.467 477.85 298.754 478.14 299.118 478.345C299.488 478.544 299.924 478.643 300.426 478.643C300.955 478.643 301.401 478.53 301.765 478.306C302.135 478.074 302.416 477.737 302.608 477.294C302.799 476.851 302.895 476.306 302.895 475.658V461.499ZM314.952 482.093C313.98 482.093 313.115 481.925 312.354 481.588C311.594 481.244 310.993 480.738 310.55 480.071C310.114 479.396 309.895 478.557 309.895 477.552C309.895 476.706 310.051 475.995 310.361 475.42C310.672 474.845 311.095 474.383 311.631 474.032C312.166 473.682 312.774 473.417 313.455 473.239C314.142 473.06 314.863 472.935 315.616 472.862C316.502 472.77 317.216 472.684 317.758 472.604C318.3 472.518 318.693 472.393 318.938 472.228C319.183 472.062 319.305 471.818 319.305 471.494V471.434C319.305 470.806 319.107 470.321 318.71 469.977C318.32 469.633 317.765 469.461 317.044 469.461C316.284 469.461 315.679 469.63 315.23 469.967C314.78 470.297 314.483 470.714 314.337 471.216L310.431 470.899C310.629 469.974 311.019 469.174 311.601 468.5C312.183 467.819 312.933 467.296 313.852 466.933C314.777 466.563 315.848 466.378 317.064 466.378C317.91 466.378 318.72 466.477 319.493 466.675C320.273 466.873 320.964 467.181 321.566 467.597C322.174 468.014 322.653 468.549 323.003 469.203C323.354 469.851 323.529 470.628 323.529 471.534V481.806H319.523V479.694H319.404C319.16 480.17 318.832 480.589 318.422 480.953C318.013 481.31 317.52 481.591 316.945 481.796C316.37 481.994 315.706 482.093 314.952 482.093ZM316.162 479.178C316.783 479.178 317.332 479.056 317.808 478.811C318.284 478.56 318.657 478.223 318.928 477.8C319.199 477.377 319.335 476.898 319.335 476.362V474.746C319.202 474.832 319.021 474.911 318.789 474.984C318.565 475.05 318.31 475.113 318.026 475.172C317.742 475.225 317.457 475.275 317.173 475.321C316.889 475.361 316.631 475.397 316.4 475.43C315.904 475.503 315.471 475.619 315.101 475.777C314.731 475.936 314.443 476.151 314.238 476.422C314.033 476.686 313.931 477.017 313.931 477.413C313.931 477.988 314.139 478.428 314.556 478.732C314.979 479.029 315.514 479.178 316.162 479.178ZM340.459 466.576L335.134 481.806H330.375L325.051 466.576H329.513L332.676 477.473H332.834L335.987 466.576H340.459ZM346.554 482.093C345.583 482.093 344.717 481.925 343.956 481.588C343.196 481.244 342.595 480.738 342.152 480.071C341.716 479.396 341.498 478.557 341.498 477.552C341.498 476.706 341.653 475.995 341.964 475.42C342.274 474.845 342.697 474.383 343.233 474.032C343.768 473.682 344.376 473.417 345.057 473.239C345.745 473.06 346.465 472.935 347.219 472.862C348.104 472.77 348.818 472.684 349.36 472.604C349.902 472.518 350.296 472.393 350.54 472.228C350.785 472.062 350.907 471.818 350.907 471.494V471.434C350.907 470.806 350.709 470.321 350.312 469.977C349.922 469.633 349.367 469.461 348.646 469.461C347.886 469.461 347.281 469.63 346.832 469.967C346.382 470.297 346.085 470.714 345.94 471.216L342.033 470.899C342.231 469.974 342.621 469.174 343.203 468.5C343.785 467.819 344.535 467.296 345.454 466.933C346.379 466.563 347.45 466.378 348.666 466.378C349.512 466.378 350.322 466.477 351.095 466.675C351.875 466.873 352.566 467.181 353.168 467.597C353.776 468.014 354.255 468.549 354.605 469.203C354.956 469.851 355.131 470.628 355.131 471.534V481.806H351.125V479.694H351.006C350.762 480.17 350.434 480.589 350.025 480.953C349.615 481.31 349.122 481.591 348.547 481.796C347.972 481.994 347.308 482.093 346.554 482.093ZM347.764 479.178C348.385 479.178 348.934 479.056 349.41 478.811C349.886 478.56 350.259 478.223 350.53 477.8C350.801 477.377 350.937 476.898 350.937 476.362V474.746C350.805 474.832 350.623 474.911 350.391 474.984C350.167 475.05 349.912 475.113 349.628 475.172C349.344 475.225 349.059 475.275 348.775 475.321C348.491 475.361 348.233 475.397 348.002 475.43C347.506 475.503 347.073 475.619 346.703 475.777C346.333 475.936 346.045 476.151 345.84 476.422C345.635 476.686 345.533 477.017 345.533 477.413C345.533 477.988 345.741 478.428 346.158 478.732C346.581 479.029 347.116 479.178 347.764 479.178ZM375.965 467.339C375.886 466.54 375.545 465.918 374.944 465.475C374.342 465.033 373.526 464.811 372.495 464.811C371.794 464.811 371.203 464.91 370.72 465.109C370.237 465.3 369.867 465.568 369.609 465.912C369.358 466.255 369.233 466.645 369.233 467.082C369.219 467.445 369.296 467.762 369.461 468.034C369.633 468.305 369.867 468.539 370.165 468.737C370.462 468.929 370.806 469.098 371.196 469.243C371.586 469.382 372.002 469.501 372.445 469.6L374.27 470.036C375.155 470.235 375.968 470.499 376.709 470.83C377.449 471.16 378.09 471.567 378.632 472.049C379.174 472.532 379.594 473.1 379.892 473.755C380.196 474.409 380.351 475.159 380.358 476.005C380.351 477.248 380.034 478.325 379.406 479.238C378.784 480.143 377.885 480.847 376.709 481.35C375.539 481.845 374.128 482.093 372.475 482.093C370.836 482.093 369.408 481.842 368.192 481.34C366.982 480.837 366.037 480.094 365.356 479.109C364.682 478.117 364.328 476.891 364.295 475.43H368.449C368.496 476.111 368.691 476.68 369.034 477.136C369.385 477.585 369.851 477.926 370.432 478.157C371.021 478.382 371.685 478.494 372.425 478.494C373.153 478.494 373.784 478.388 374.319 478.177C374.861 477.965 375.281 477.671 375.578 477.294C375.876 476.917 376.025 476.485 376.025 475.995C376.025 475.539 375.889 475.156 375.618 474.845C375.354 474.535 374.964 474.27 374.448 474.052C373.939 473.834 373.314 473.636 372.574 473.457L370.363 472.902C368.651 472.485 367.299 471.834 366.308 470.949C365.316 470.063 364.824 468.87 364.83 467.369C364.824 466.14 365.151 465.066 365.812 464.147C366.48 463.228 367.395 462.511 368.558 461.995C369.722 461.48 371.044 461.222 372.525 461.222C374.032 461.222 375.347 461.48 376.471 461.995C377.601 462.511 378.48 463.228 379.108 464.147C379.736 465.066 380.06 466.13 380.08 467.339H375.965ZM390.047 482.103C388.487 482.103 387.145 481.773 386.022 481.112C384.904 480.444 384.045 479.519 383.444 478.335C382.849 477.152 382.551 475.79 382.551 474.25C382.551 472.69 382.852 471.322 383.454 470.145C384.062 468.962 384.924 468.04 386.041 467.379C387.159 466.711 388.487 466.378 390.027 466.378C391.356 466.378 392.519 466.619 393.517 467.101C394.516 467.584 395.305 468.262 395.887 469.134C396.469 470.007 396.789 471.031 396.849 472.208H392.863C392.751 471.448 392.453 470.836 391.971 470.373C391.495 469.904 390.87 469.67 390.097 469.67C389.442 469.67 388.871 469.848 388.381 470.205C387.899 470.555 387.522 471.068 387.251 471.742C386.98 472.416 386.845 473.232 386.845 474.191C386.845 475.163 386.977 475.989 387.241 476.67C387.512 477.35 387.892 477.869 388.381 478.226C388.871 478.583 389.442 478.762 390.097 478.762C390.579 478.762 391.012 478.663 391.396 478.464C391.786 478.266 392.106 477.978 392.357 477.602C392.615 477.218 392.784 476.759 392.863 476.223H396.849C396.783 477.387 396.466 478.411 395.897 479.297C395.335 480.176 394.559 480.864 393.567 481.359C392.575 481.855 391.402 482.103 390.047 482.103ZM399.553 481.806V466.576H403.648V469.233H403.807C404.085 468.288 404.551 467.574 405.205 467.092C405.859 466.602 406.613 466.358 407.466 466.358C407.677 466.358 407.905 466.371 408.15 466.398C408.394 466.424 408.609 466.46 408.794 466.507V470.255C408.596 470.195 408.322 470.142 407.971 470.096C407.621 470.05 407.3 470.026 407.009 470.026C406.388 470.026 405.833 470.162 405.344 470.433C404.861 470.697 404.478 471.068 404.194 471.543C403.916 472.019 403.777 472.568 403.777 473.189V481.806H399.553ZM410.978 481.806V466.576H415.202V481.806H410.978ZM413.1 464.613C412.472 464.613 411.933 464.405 411.484 463.988C411.041 463.565 410.819 463.059 410.819 462.471C410.819 461.889 411.041 461.39 411.484 460.974C411.933 460.551 412.472 460.339 413.1 460.339C413.728 460.339 414.263 460.551 414.706 460.974C415.156 461.39 415.38 461.889 415.38 462.471C415.38 463.059 415.156 463.565 414.706 463.988C414.263 464.405 413.728 464.613 413.1 464.613ZM418.585 487.517V466.576H422.75V469.134H422.938C423.123 468.724 423.391 468.308 423.741 467.885C424.098 467.455 424.561 467.098 425.129 466.814C425.705 466.523 426.418 466.378 427.271 466.378C428.382 466.378 429.406 466.669 430.345 467.25C431.283 467.825 432.034 468.695 432.596 469.858C433.157 471.015 433.438 472.466 433.438 474.211C433.438 475.909 433.164 477.344 432.615 478.514C432.073 479.677 431.333 480.56 430.394 481.161C429.462 481.756 428.418 482.054 427.261 482.054C426.442 482.054 425.744 481.918 425.169 481.647C424.601 481.376 424.135 481.036 423.771 480.626C423.408 480.209 423.13 479.79 422.938 479.367H422.809V487.517H418.585ZM422.72 474.191C422.72 475.096 422.846 475.886 423.097 476.561C423.348 477.235 423.712 477.76 424.188 478.137C424.663 478.507 425.242 478.692 425.923 478.692C426.61 478.692 427.192 478.504 427.668 478.127C428.144 477.744 428.504 477.215 428.748 476.541C429 475.86 429.125 475.077 429.125 474.191C429.125 473.312 429.003 472.538 428.758 471.871C428.514 471.203 428.154 470.681 427.678 470.304C427.202 469.927 426.617 469.739 425.923 469.739C425.235 469.739 424.654 469.921 424.178 470.284C423.708 470.648 423.348 471.163 423.097 471.831C422.846 472.499 422.72 473.285 422.72 474.191ZM444.355 466.576V469.749H435.183V466.576H444.355ZM437.266 462.927H441.489V477.126C441.489 477.516 441.549 477.82 441.668 478.038C441.787 478.249 441.952 478.398 442.164 478.484C442.382 478.57 442.633 478.613 442.917 478.613C443.116 478.613 443.314 478.596 443.512 478.563C443.71 478.524 443.862 478.494 443.968 478.474L444.633 481.617C444.421 481.683 444.124 481.759 443.74 481.845C443.357 481.938 442.891 481.994 442.342 482.014C441.324 482.054 440.432 481.918 439.665 481.607C438.905 481.297 438.313 480.814 437.89 480.16C437.467 479.505 437.259 478.679 437.266 477.681V462.927Z" fill="#8750F7"/>
<path d="M322.407 599.074V578.768H330.418C331.958 578.768 333.27 579.062 334.355 579.65C335.439 580.232 336.265 581.042 336.833 582.08C337.408 583.111 337.696 584.301 337.696 585.649C337.696 586.998 337.405 588.187 336.823 589.219C336.242 590.25 335.399 591.053 334.295 591.628C333.198 592.203 331.869 592.491 330.309 592.491H325.203V589.05H329.615C330.441 589.05 331.122 588.908 331.658 588.624C332.2 588.333 332.603 587.933 332.867 587.424C333.138 586.908 333.274 586.317 333.274 585.649C333.274 584.975 333.138 584.387 332.867 583.884C332.603 583.375 332.2 582.982 331.658 582.704C331.116 582.42 330.428 582.278 329.595 582.278H326.7V599.074H322.407ZM343.013 604.785C342.478 604.785 341.975 604.742 341.506 604.656C341.043 604.577 340.66 604.475 340.356 604.349L341.308 601.196C341.803 601.348 342.249 601.431 342.646 601.444C343.049 601.457 343.396 601.365 343.687 601.166C343.985 600.968 344.226 600.631 344.411 600.155L344.659 599.51L339.196 583.845H343.638L346.791 595.029H346.949L350.132 583.845H354.604L348.684 600.72C348.4 601.54 348.013 602.254 347.524 602.862C347.042 603.477 346.43 603.949 345.69 604.28C344.95 604.617 344.057 604.785 343.013 604.785ZM364.866 583.845V587.017H355.694V583.845H364.866ZM357.777 580.196H362V594.394C362 594.784 362.06 595.088 362.179 595.306C362.298 595.518 362.463 595.667 362.675 595.753C362.893 595.839 363.144 595.882 363.428 595.882C363.627 595.882 363.825 595.865 364.023 595.832C364.221 595.792 364.373 595.763 364.479 595.743L365.144 598.886C364.932 598.952 364.635 599.028 364.251 599.114C363.868 599.206 363.402 599.263 362.853 599.282C361.835 599.322 360.943 599.187 360.176 598.876C359.416 598.565 358.824 598.083 358.401 597.428C357.978 596.774 357.77 595.948 357.777 594.95V580.196ZM372.168 590.27V599.074H367.945V578.768H372.049V586.532H372.228C372.572 585.633 373.127 584.929 373.894 584.42C374.66 583.904 375.622 583.646 376.779 583.646C377.837 583.646 378.759 583.878 379.545 584.34C380.339 584.796 380.953 585.454 381.39 586.313C381.832 587.166 382.051 588.187 382.044 589.377V599.074H377.82V590.131C377.827 589.192 377.589 588.462 377.106 587.939C376.63 587.417 375.963 587.156 375.103 587.156C374.528 587.156 374.019 587.278 373.576 587.523C373.14 587.768 372.796 588.125 372.545 588.594C372.301 589.057 372.175 589.615 372.168 590.27ZM392.249 599.372C390.709 599.372 389.377 599.044 388.253 598.39C387.136 597.729 386.274 596.81 385.665 595.634C385.057 594.45 384.753 593.079 384.753 591.519C384.753 589.946 385.057 588.571 385.665 587.394C386.274 586.211 387.136 585.292 388.253 584.638C389.377 583.977 390.709 583.646 392.249 583.646C393.789 583.646 395.118 583.977 396.235 584.638C397.359 585.292 398.225 586.211 398.833 587.394C399.441 588.571 399.745 589.946 399.745 591.519C399.745 593.079 399.441 594.45 398.833 595.634C398.225 596.81 397.359 597.729 396.235 598.39C395.118 599.044 393.789 599.372 392.249 599.372ZM392.269 596.1C392.97 596.1 393.555 595.901 394.024 595.505C394.493 595.102 394.847 594.553 395.085 593.859C395.329 593.165 395.452 592.375 395.452 591.489C395.452 590.603 395.329 589.813 395.085 589.119C394.847 588.425 394.493 587.877 394.024 587.473C393.555 587.07 392.97 586.869 392.269 586.869C391.562 586.869 390.967 587.07 390.484 587.473C390.008 587.877 389.648 588.425 389.403 589.119C389.166 589.813 389.047 590.603 389.047 591.489C389.047 592.375 389.166 593.165 389.403 593.859C389.648 594.553 390.008 595.102 390.484 595.505C390.967 595.901 391.562 596.1 392.269 596.1ZM406.715 590.27V599.074H402.492V583.845H406.517V586.532H406.696C407.033 585.646 407.598 584.945 408.391 584.43C409.184 583.907 410.146 583.646 411.276 583.646C412.334 583.646 413.256 583.878 414.043 584.34C414.829 584.803 415.441 585.464 415.877 586.323C416.313 587.176 416.531 588.194 416.531 589.377V599.074H412.308V590.131C412.314 589.199 412.076 588.472 411.594 587.949C411.111 587.421 410.447 587.156 409.601 587.156C409.032 587.156 408.53 587.278 408.094 587.523C407.664 587.768 407.327 588.125 407.082 588.594C406.844 589.057 406.722 589.615 406.715 590.27Z" fill="white"/>
<rect x="466.39" y="104.675" width="325.839" height="29.3171" rx="14.6586" fill="#D9D9D9"/>
<rect x="466.39" y="107.188" width="255.478" height="25.129" rx="12.5645" fill="#8750F7"/>
<rect x="466.39" y="221.944" width="325.839" height="29.3171" rx="14.6586" fill="#D9D9D9"/>
<rect x="466.39" y="332.512" width="325.839" height="29.3171" rx="14.6586" fill="#D9D9D9"/>
<rect x="462.202" y="449.78" width="325.839" height="29.3171" rx="14.6586" fill="#D9D9D9"/>
<rect x="466.39" y="581.288" width="325.839" height="29.3171" rx="14.6586" fill="#D9D9D9"/>
<rect x="466.39" y="224.457" width="314.112" height="25.129" rx="12.5645" fill="#8750F7"/>
<rect x="466.39" y="335.024" width="288.146" height="25.129" rx="12.5645" fill="#8750F7"/>
<rect x="462.202" y="452.293" width="249.615" height="25.129" rx="12.5645" fill="#8750F7"/>
<rect x="466.39" y="583.801" width="223.648" height="25.129" rx="12.5645" fill="#8750F7"/>
<circle cx="767.519" cy="236.602" r="12.9833" fill="#0D0719"/>
<circle cx="740.715" cy="348.008" r="12.9833" fill="#0D0719"/>
<circle cx="698.833" cy="465.276" r="12.9833" fill="#0D0719"/>
<circle cx="677.055" cy="596.785" r="12.9833" fill="#0D0719"/>
<circle cx="714.748" cy="119.334" r="12.9833" fill="#0D0719"/>
</svg>
